<?xml version="1.0" encoding="UTF-8" standalone="no"?>
<!DOCTYPE svg PUBLIC "-//W3C//DTD SVG 1.1//EN" "http://www.w3.org/Graphics/SVG/1.1/DTD/svg11.dtd">
<svg width="100%" height="100%" viewBox="0 0 1863 468" version="1.1" xmlns="http://www.w3.org/2000/svg" xmlns:xlink="http://www.w3.org/1999/xlink" xml:space="preserve" xmlns:serif="http://www.serif.com/" style="fill-rule:evenodd;clip-rule:evenodd;stroke-linecap:square;">
    <g transform="matrix(21.5,0,0,21.5,258,229)">
        <g transform="matrix(1,0,0,1,-12,-12)">
            <clipPath id="_clip1">
                <rect x="0" y="0" width="24" height="24"/>
            </clipPath>
            <g clip-path="url(#_clip1)">
                <g>
                    <path d="M2.5,3L21.5,3L21.5,17L6.5,17L2.5,20.5L2.5,3Z" style="fill:none;fill-rule:nonzero;"/>
                    <path d="M2.5,3L21.5,3L21.5,17L6.5,17L2.5,20.5L2.5,3Z" style="fill:none;fill-rule:nonzero;stroke:black;stroke-width:2px;"/>
                </g>
            </g>
        </g>
    </g>
    <g transform="matrix(1,0,0,1,7,0)">
        <g transform="matrix(0.985746,0,0,0.849057,2.910728,-233.311321)">
            <path d="M890.072,585.967L890.072,658.627L839.532,658.627L839.532,361.497L898.675,361.497L917.815,441.397C919.536,448.222 921.328,455.838 923.192,464.244C925.056,472.65 926.848,481.056 928.569,489.462C930.289,497.869 931.723,505.318 932.87,511.81C935.451,525.626 937.745,538.443 939.752,550.262C941.759,562.08 943.767,574.232 945.774,586.716C946.634,592.709 947.423,598.535 948.14,604.194C948.857,610.021 949.573,615.68 950.29,621.173L954.592,621.173C953.445,612.351 952.369,604.403 951.366,597.328C950.362,590.254 949.358,582.971 948.355,575.48C947.351,567.99 946.276,559.084 945.129,548.764C944.125,541.439 943.121,533.158 942.118,523.92C941.114,514.681 940.182,505.526 939.322,496.454C938.462,487.382 937.888,479.35 937.601,472.359C937.171,466.2 936.849,460.166 936.634,454.256C936.419,448.347 936.311,442.646 936.311,437.153L936.311,361.497L986.851,361.497L986.851,658.627L930.934,658.627L911.148,581.473C909.715,576.146 908.066,569.488 906.202,561.498C904.338,553.508 902.367,544.977 900.288,535.905C898.209,526.833 896.309,517.885 894.588,509.063C892.151,496.911 889.714,484.385 887.276,471.485C884.839,458.584 882.688,445.892 880.824,433.407C879.821,427.415 878.889,421.505 878.028,415.679C877.168,409.853 876.379,404.277 875.663,398.95L871.361,398.95C872.795,409.77 874.372,421.214 876.093,433.282C877.813,445.351 879.534,458.126 881.254,471.61C882.688,484.594 884.122,497.702 885.556,510.936C886.989,524.169 888.136,537.111 888.997,549.762C889.283,556.088 889.534,562.288 889.749,568.364C889.964,574.44 890.072,580.308 890.072,585.967Z" style="fill-rule:nonzero;"/>
            <path d="M1120.192,658.627L1012.659,658.627L1012.659,361.497L1119.117,361.497L1119.117,416.428L1063.2,416.428L1063.2,473.108L1114.815,473.108L1114.815,528.039L1063.2,528.039L1063.2,603.695L1120.192,603.695L1120.192,658.627Z" style="fill-rule:nonzero;"/>
            <path d="M1239.553,510.561C1239.553,520.715 1240.664,530.536 1242.887,540.024C1245.109,549.513 1248.586,558.501 1253.318,566.991C1257.475,574.482 1262.673,581.057 1268.91,586.716C1275.147,592.376 1281.993,596.537 1289.449,599.201C1297.191,602.197 1305.292,603.695 1313.751,603.695C1327.658,603.695 1339.917,599.95 1350.527,592.459C1360.994,584.968 1369.023,574.648 1374.614,561.498C1375.905,558.335 1377.052,554.964 1378.055,551.385C1379.059,547.806 1379.919,544.103 1380.636,540.274L1432.252,540.274C1431.105,554.756 1428.273,567.906 1423.757,579.725C1419.241,591.544 1413.47,602.363 1406.444,612.185C1391.676,632.825 1372.894,647.141 1350.097,655.131C1338.627,659.126 1326.655,661.124 1314.181,661.124C1301.707,661.124 1289.126,658.876 1276.437,654.382C1263.748,649.888 1251.454,642.48 1239.553,632.16C1229.087,623.171 1220.054,612.226 1212.455,599.326C1204.856,586.425 1199.121,572.65 1195.25,558.002C1193.243,550.511 1191.701,542.771 1190.626,534.781C1189.551,526.791 1189.013,518.551 1189.013,510.062C1189.013,492.75 1191.128,476.562 1195.357,461.497C1199.587,446.433 1205.358,432.741 1212.67,420.423C1220.843,406.94 1230.377,395.663 1241.274,386.591C1252.17,377.519 1263.067,370.819 1273.964,366.491C1280.272,364.16 1286.796,362.329 1293.535,360.998C1300.273,359.666 1307.156,359 1314.181,359C1338.842,359 1361.209,366.574 1381.281,381.722C1390.888,389.046 1399.347,397.827 1406.659,408.064C1413.971,418.301 1419.778,429.246 1424.079,440.898C1428.381,452.883 1431.105,465.867 1432.252,479.849L1380.636,479.849C1379.489,472.359 1377.446,465.243 1374.507,458.501C1371.568,451.759 1368.162,445.892 1364.291,440.898C1360.277,435.904 1355.689,431.535 1350.527,427.789C1345.366,424.044 1339.702,421.173 1333.537,419.175C1327.085,417.344 1320.49,416.428 1313.751,416.428C1304.575,416.428 1296.187,418.051 1288.588,421.297C1280.989,424.543 1274.466,428.58 1269.017,433.407C1256.543,444.893 1247.941,460.207 1243.209,479.35C1241.919,484.177 1240.987,489.213 1240.414,494.456C1239.84,499.7 1239.553,505.068 1239.553,510.561Z" style="fill-rule:nonzero;"/>
            <path d="M1451.608,658.627L1451.608,361.497L1502.148,361.497L1502.148,465.617L1539.785,465.617L1539.785,361.497L1590.325,361.497L1590.325,658.627L1539.785,658.627L1539.785,520.549L1502.148,520.549L1502.148,658.627L1451.608,658.627Z" style="fill-rule:nonzero;"/>
            <path d="M1605.38,658.627L1645.382,361.497L1717.644,361.497L1757.646,658.627L1707.106,658.627L1699.578,590.462L1663.447,590.462L1655.92,658.627L1605.38,658.627ZM1669.469,535.53L1693.556,535.53L1684.954,442.396C1684.667,438.568 1684.452,435.113 1684.309,432.034C1684.165,428.955 1684.022,425.625 1683.879,422.046C1683.735,418.468 1683.663,414.098 1683.663,408.938L1679.362,408.938L1679.362,419.674C1679.219,421.006 1679.147,422.255 1679.147,423.42C1679.147,425.084 1679.075,426.791 1678.932,428.538C1678.789,430.286 1678.717,431.992 1678.717,433.657C1678.717,436.986 1678.502,439.899 1678.072,442.396L1669.469,535.53Z" style="fill-rule:nonzero;"/>
            <path d="M1781.303,658.627L1781.303,416.428L1741.516,416.428L1741.516,361.497L1871.631,361.497L1871.631,416.428L1831.844,416.428L1831.844,658.627L1781.303,658.627Z" style="fill-rule:nonzero;"/>
        </g>
        <g transform="matrix(1,0,0,1,0,-357)">
            <path d="M556.36,555.276C556.36,541.284 558.551,528.034 562.932,515.526C567.313,503.018 573.461,491.393 581.376,480.652C589.149,470.052 598.442,460.865 609.254,453.092C620.066,445.319 631.691,439.312 644.128,435.072C650.347,432.952 656.813,431.327 663.526,430.196C670.239,429.065 677.059,428.5 683.984,428.5C698.259,428.5 711.685,430.726 724.264,435.178C736.843,439.63 748.361,445.601 758.82,453.092C770.833,461.996 780.585,471.925 788.076,482.878C795.567,493.831 801.149,504.679 804.824,515.42C806.944,521.78 808.569,528.281 809.7,534.924C810.831,541.567 811.396,548.351 811.396,555.276C811.396,569.127 809.241,582.624 804.93,595.768C800.619,608.912 794.577,620.925 786.804,631.808C778.889,642.549 769.526,651.913 758.714,659.898C747.902,667.883 736.348,673.996 724.052,678.236C711.191,682.759 697.835,685.02 683.984,685.02C669.851,685.02 656.424,682.759 643.704,678.236C630.984,673.713 619.395,667.565 608.936,659.792C598.336,651.877 589.114,642.62 581.27,632.02C573.426,621.42 567.313,609.407 562.932,595.98C560.812,589.62 559.187,583.013 558.056,576.158C556.925,569.303 556.36,562.343 556.36,555.276Z"/>
        </g>
    </g>
</svg>
